<svg width="12" height="14" viewBox="0 0 12 14" fill="none" xmlns="http://www.w3.org/2000/svg">
<path fill-rule="evenodd" clip-rule="evenodd" d="M7.11989 5.54167H5.95323V3.79167H4.20323V2.625H5.95323V0.875H7.11989V2.625H8.86989V3.79167H7.11989V5.54167ZM2.45912 11.9583C2.45912 11.3167 2.97829 10.7917 3.61996 10.7917C4.26162 10.7917 4.78662 11.3167 4.78662 11.9583C4.78662 12.6 4.26162 13.125 3.61996 13.125C2.97829 13.125 2.45912 12.6 2.45912 11.9583ZM9.45325 10.7917C8.81158 10.7917 8.29242 11.3167 8.29242 11.9583C8.29242 12.6 8.81158 13.125 9.45325 13.125C10.0949 13.125 10.6199 12.6 10.6199 11.9583C10.6199 11.3167 10.0949 10.7917 9.45325 10.7917ZM8.60743 7.875H4.2616L3.61993 9.04167H10.6199V10.2083H3.61993C2.73327 10.2083 2.17327 9.2575 2.5991 8.47584L3.3866 7.05251L1.2866 2.62501H0.119934V1.45834H2.02743L4.51243 6.70834H8.60743L10.8649 2.62501L11.8799 3.185L9.62827 7.27417C9.42993 7.63584 9.04493 7.875 8.60743 7.875Z" fill="#FAFAFA"/>
</svg>
